<svg width="80" height="80" viewBox="0 0 80 80" fill="none" xmlns="http://www.w3.org/2000/svg">
<path d="M69.9994 23.333V19.9997H63.3327V23.333H59.0694L55.736 13.333H24.2627L20.9293 23.333H6.66602V69.9997H73.3327V23.333H69.9994ZM66.666 63.333H13.3327V29.9997H25.736L29.0693 19.9997H50.9294L54.2627 29.9997H66.666V63.333Z" fill="#E1E1E1"/>
<path d="M40 30C37.0333 30 34.1332 30.8797 31.6665 32.528C29.1997 34.1762 27.2771 36.5189 26.1418 39.2597C25.0065 42.0006 24.7094 45.0166 25.2882 47.9264C25.867 50.8361 27.2956 53.5088 29.3934 55.6066C31.4912 57.7044 34.1639 59.133 37.0737 59.7118C39.9834 60.2906 42.9994 59.9935 45.7403 58.8582C48.4811 57.7229 50.8238 55.8003 52.4721 53.3336C54.1203 50.8668 55 47.9667 55 45C54.9956 41.0231 53.4138 37.2104 50.6017 34.3983C47.7896 31.5862 43.9769 30.0044 40 30ZM40 53.3333C38.3518 53.3333 36.7407 52.8446 35.3703 51.9289C33.9998 51.0132 32.9317 49.7117 32.301 48.189C31.6703 46.6663 31.5053 44.9908 31.8268 43.3742C32.1483 41.7577 32.942 40.2729 34.1075 39.1074C35.2729 37.942 36.7577 37.1483 38.3743 36.8268C39.9908 36.5052 41.6663 36.6703 43.189 37.301C44.7118 37.9317 46.0132 38.9998 46.9289 40.3702C47.8446 41.7407 48.3333 43.3518 48.3333 45C48.3333 47.2101 47.4554 49.3298 45.8926 50.8926C44.3298 52.4554 42.2101 53.3333 40 53.3333Z" fill="#E1E1E1"/>
</svg>
