<svg width="16" height="16" viewBox="0 0 16 16" fill="none" xmlns="http://www.w3.org/2000/svg">
<path d="M14.5526 7.62768C14.4346 7.45301 11.6266 3.33301 7.99922 3.33301C4.37189 3.33301 1.56389 7.45301 1.44589 7.62768L1.19922 7.99967L1.44922 8.37167C1.56389 8.54634 4.37189 12.6663 7.99922 12.6663C11.6266 12.6663 14.4346 8.54634 14.5526 8.37167L14.8026 7.99967L14.5526 7.62768ZM7.99922 11.333C5.64522 11.333 3.55655 8.93967 2.82722 7.99967C3.55655 7.05967 5.64522 4.66634 7.99922 4.66634C10.3532 4.66634 12.4419 7.05967 13.1712 7.99967C12.4419 8.93967 10.3532 11.333 7.99922 11.333Z" fill="#9A9AB0"/>
<path d="M7.9987 5.33301C7.47128 5.33301 6.95571 5.48941 6.51718 5.78242C6.07865 6.07544 5.73685 6.49192 5.53502 6.97918C5.33319 7.46645 5.28038 8.00263 5.38327 8.51992C5.48617 9.0372 5.74014 9.51235 6.11308 9.88529C6.48602 10.2582 6.96118 10.5122 7.47846 10.6151C7.99574 10.718 8.53192 10.6652 9.01919 10.4634C9.50646 10.2615 9.92293 9.91973 10.216 9.48119C10.509 9.04266 10.6654 8.52709 10.6654 7.99967C10.6654 7.29243 10.3844 6.61415 9.88432 6.11406C9.38422 5.61396 8.70594 5.33301 7.9987 5.33301ZM7.9987 9.33301C7.73499 9.33301 7.4772 9.25481 7.25794 9.1083C7.03867 8.96179 6.86778 8.75355 6.76686 8.50992C6.66594 8.26628 6.63954 7.9982 6.69099 7.73955C6.74243 7.48091 6.86942 7.24334 7.05589 7.05687C7.24236 6.8704 7.47994 6.74341 7.73858 6.69196C7.99722 6.64051 8.26531 6.66692 8.50894 6.76783C8.75258 6.86875 8.96082 7.03965 9.10733 7.25891C9.25383 7.47818 9.33203 7.73597 9.33203 7.99967C9.33203 8.3533 9.19156 8.69243 8.94151 8.94248C8.69146 9.19253 8.35232 9.33301 7.9987 9.33301Z" fill="#9A9AB0"/>
</svg>
