<svg width="24" height="24" viewBox="0 0 24 24" fill="none" xmlns="http://www.w3.org/2000/svg">
<path d="M21 6C21 5.20435 20.6839 4.44129 20.1213 3.87868C19.5587 3.31607 18.7956 3 18 3H6C5.20435 3 4.44129 3.31607 3.87868 3.87868C3.31607 4.44129 3 5.20435 3 6V21H17V11H21V6ZM15 19H5V6C5 5.73478 5.10536 5.48043 5.29289 5.29289C5.48043 5.10536 5.73478 5 6 5H15.184C15.0656 5.32026 15.0033 5.65856 15 6V19ZM19 9H17V6C17 5.73478 17.1054 5.48043 17.2929 5.29289C17.4804 5.10536 17.7348 5 18 5C18.2652 5 18.5196 5.10536 18.7071 5.29289C18.8946 5.48043 19 5.73478 19 6V9Z" fill="#9A9AB0"/>
<path d="M13 7H7V9H13V7Z" fill="#9A9AB0"/>
<path d="M13 11H7V13H13V11Z" fill="#9A9AB0"/>
<path d="M11 15H7V17H11V15Z" fill="#9A9AB0"/>
</svg>
