<svg width="32" height="32" viewBox="0 0 32 32" fill="none" xmlns="http://www.w3.org/2000/svg">
<path d="M26.666 6.66699H5.33268C4.62544 6.66699 3.94716 6.94794 3.44706 7.44804C2.94697 7.94814 2.66602 8.62641 2.66602 9.33366V22.667C2.66602 23.3742 2.94697 24.0525 3.44706 24.5526C3.94716 25.0527 4.62544 25.3337 5.33268 25.3337H26.666C27.3733 25.3337 28.0515 25.0527 28.5516 24.5526C29.0517 24.0525 29.3327 23.3742 29.3327 22.667V9.33366C29.3327 8.62641 29.0517 7.94814 28.5516 7.44804C28.0515 6.94794 27.3733 6.66699 26.666 6.66699ZM26.666 9.33366V12.0003H5.33268V9.33366H26.666ZM5.33268 22.667V14.667H26.666V22.667H5.33268Z" fill="white"/>
<path d="M13.3333 17.334H8V20.0007H13.3333V17.334Z" fill="white"/>
</svg>
