<svg width="32" height="32" viewBox="0 0 32 32" fill="none" xmlns="http://www.w3.org/2000/svg">
<path d="M27.6953 17.6637L26.87 14.6663H27.9993V11.9997H26.1327L25.766 10.6663V7.99967H21.3327V10.6663H23.098C23.0981 10.9103 23.1322 11.1531 23.1993 11.3877L23.6287 12.9437L19.5553 15.9997H17.3327C17.3327 15.2924 17.0517 14.6142 16.5516 14.1141C16.0515 13.614 15.3733 13.333 14.666 13.333H13.3327V5.33301H2.66602V15.9997H6.66602V17.801C5.99101 18.1199 5.40258 18.5964 4.95035 19.1904C4.49811 19.7843 4.19533 20.4783 4.06754 21.2138C3.93974 21.9494 3.99068 22.7048 4.21606 23.4165C4.44143 24.1282 4.83464 24.7753 5.36252 25.3032C5.8904 25.831 6.53747 26.2243 7.24917 26.4496C7.96087 26.675 8.71633 26.7259 9.45184 26.5982C10.1874 26.4704 10.8814 26.1676 11.4753 25.7153C12.0693 25.2631 12.5458 24.6747 12.8647 23.9997H21.798C22.1237 24.6869 22.6127 25.2839 23.2223 25.7385C23.8319 26.1931 24.5436 26.4916 25.2951 26.6078C26.0466 26.7239 26.8152 26.6543 27.5336 26.405C28.252 26.1557 28.8985 25.7342 29.4165 25.1774C29.9345 24.6207 30.3082 23.9455 30.5051 23.211C30.702 22.4765 30.7161 21.7049 30.546 20.9637C30.376 20.2225 30.027 19.5342 29.5296 18.9589C29.0322 18.3837 28.4016 17.939 27.6927 17.6637H27.6953ZM5.33268 13.333V7.99967H10.666V13.333H5.33268ZM8.66602 23.9997C8.27045 23.9997 7.88377 23.8824 7.55488 23.6626C7.22598 23.4428 6.96963 23.1305 6.81826 22.765C6.66688 22.3996 6.62727 21.9975 6.70444 21.6095C6.78162 21.2215 6.9721 20.8652 7.2518 20.5855C7.53151 20.3058 7.88787 20.1153 8.27584 20.0381C8.6638 19.9609 9.06593 20.0005 9.43138 20.1519C9.79683 20.3033 10.1092 20.5596 10.329 20.8885C10.5487 21.2174 10.666 21.6041 10.666 21.9997C10.666 22.5301 10.4553 23.0388 10.0802 23.4139C9.70516 23.789 9.19645 23.9997 8.66602 23.9997ZM21.4007 21.333H13.2673C13.1234 20.3409 12.6625 19.4219 11.9534 18.7132C11.2442 18.0045 10.3249 17.5442 9.33268 17.401V15.9997H14.666C14.666 16.7069 14.947 17.3852 15.4471 17.8853C15.9472 18.3854 16.6254 18.6663 17.3327 18.6663H20.4433L24.39 15.7063L24.8807 17.4837C23.9839 17.7072 23.1741 18.1927 22.5543 18.8782C21.9345 19.5638 21.5329 20.4183 21.4007 21.333ZM25.9993 23.9997C25.6038 23.9997 25.2171 23.8824 24.8882 23.6626C24.5593 23.4428 24.303 23.1305 24.1516 22.765C24.0002 22.3996 23.9606 21.9975 24.0378 21.6095C24.115 21.2215 24.3054 20.8652 24.5851 20.5855C24.8648 20.3058 25.2212 20.1153 25.6092 20.0381C25.9971 19.9609 26.3993 20.0005 26.7647 20.1519C27.1302 20.3033 27.4425 20.5596 27.6623 20.8885C27.8821 21.2174 27.9993 21.6041 27.9993 21.9997C27.9993 22.5301 27.7886 23.0388 27.4136 23.4139C27.0385 23.789 26.5298 23.9997 25.9993 23.9997Z" fill="white"/>
</svg>
