<svg width="32" height="32" viewBox="0 0 32 32" fill="none" xmlns="http://www.w3.org/2000/svg">
<path d="M28 8C28 6.93913 27.5786 5.92172 26.8284 5.17157C26.0783 4.42143 25.0609 4 24 4H8C6.93913 4 5.92172 4.42143 5.17157 5.17157C4.42143 5.92172 4 6.93913 4 8V16H9.33333V28C9.33333 28.0413 9.35333 28.076 9.35733 28.1173C9.36579 28.2078 9.38366 28.2972 9.41067 28.384C9.43553 28.4696 9.4695 28.5523 9.512 28.6307C9.52515 28.6688 9.54028 28.7061 9.55733 28.7427C9.59781 28.7967 9.64239 28.8475 9.69067 28.8947C9.71067 28.9173 9.72667 28.94 9.748 28.9613C9.85561 29.0644 9.98008 29.1483 10.116 29.2093C10.1453 29.2227 10.1747 29.2307 10.204 29.2427C10.3518 29.2994 10.5084 29.3301 10.6667 29.3333C10.8243 29.3299 10.9801 29.2983 11.1267 29.24C11.1723 29.2218 11.2168 29.2009 11.26 29.1773C11.3094 29.1577 11.3575 29.135 11.404 29.1093L14.6667 26.9333L17.9267 29.1067C18.1458 29.2529 18.4033 29.3309 18.6667 29.3309C18.9301 29.3309 19.1876 29.2529 19.4067 29.1067L22.6667 26.9333L25.9267 29.108C25.9632 29.1251 26.0006 29.1402 26.0387 29.1533C26.1173 29.1965 26.2005 29.2309 26.2867 29.256C26.371 29.2817 26.4576 29.2992 26.5453 29.308C26.588 29.308 26.624 29.332 26.6667 29.332C26.7093 29.332 26.7507 29.3107 26.8 29.3067C26.8878 29.2976 26.9745 29.2798 27.0587 29.2533C27.1404 29.2293 27.2194 29.1972 27.2947 29.1573C27.367 29.1198 27.4353 29.0752 27.4987 29.024C27.5699 28.9667 27.6347 28.9019 27.692 28.8307C27.7187 28.7973 27.7573 28.7787 27.7813 28.7427C27.7984 28.7061 27.8135 28.6688 27.8267 28.6307C27.8692 28.5523 27.9031 28.4696 27.928 28.384C27.9551 28.2972 27.973 28.2079 27.9813 28.1173C27.9896 28.0786 27.9958 28.0394 28 28V8ZM6.66667 13.3333V8C6.66667 7.64638 6.80714 7.30724 7.05719 7.05719C7.30724 6.80714 7.64638 6.66667 8 6.66667C8.35362 6.66667 8.69276 6.80714 8.94281 7.05719C9.19286 7.30724 9.33333 7.64638 9.33333 8V13.3333H6.66667ZM21.9267 24.2227L18.6667 26.4L15.4067 24.2267C15.1876 24.0805 14.9301 24.0025 14.6667 24.0025C14.4033 24.0025 14.1458 24.0805 13.9267 24.2267L12 25.5093V8C11.9956 7.54475 11.9126 7.09368 11.7547 6.66667H24C24.3536 6.66667 24.6928 6.80714 24.9428 7.05719C25.1929 7.30724 25.3333 7.64638 25.3333 8V25.508L23.4067 24.2227C23.1876 24.0765 22.9301 23.9985 22.6667 23.9985C22.4033 23.9985 22.1458 24.0765 21.9267 24.2227Z" fill="white"/>
<path d="M19.9993 9.33301H17.3327V10.6663H14.666V17.333H19.9993V18.6663H14.666V21.333H17.3327V22.6663H19.9993V21.333H22.666V14.6663H17.3327V13.333H22.666V10.6663H19.9993V9.33301Z" fill="white"/>
</svg>
