<svg width="32" height="32" viewBox="0 0 32 32" fill="none" xmlns="http://www.w3.org/2000/svg">
<path d="M28 8C28 6.93913 27.5786 5.92172 26.8284 5.17157C26.0783 4.42143 25.0609 4 24 4H8C6.93913 4 5.92172 4.42143 5.17157 5.17157C4.42143 5.92172 4 6.93913 4 8V28H22.6667V14.6667H28V8ZM20 25.3333H6.66667V8C6.66667 7.64638 6.80714 7.30724 7.05719 7.05719C7.30724 6.80714 7.64638 6.66667 8 6.66667H20.2453C20.0874 7.09368 20.0044 7.54475 20 8V25.3333ZM25.3333 12H22.6667V8C22.6667 7.64638 22.8071 7.30724 23.0572 7.05719C23.3072 6.80714 23.6464 6.66667 24 6.66667C24.3536 6.66667 24.6928 6.80714 24.9428 7.05719C25.1929 7.30724 25.3333 7.64638 25.3333 8V12Z" fill="white"/>
<path d="M17.334 9.33301H9.33398V11.9997H17.334V9.33301Z" fill="white"/>
<path d="M17.334 14.667H9.33398V17.3337H17.334V14.667Z" fill="white"/>
<path d="M14.6673 20H9.33398V22.6667H14.6673V20Z" fill="white"/>
</svg>
