<svg width="32" height="32" viewBox="0 0 32 32" fill="none" xmlns="http://www.w3.org/2000/svg">
<circle cx="16" cy="16" r="16" fill="#DBD7F4"/>
<path d="M11.2641 21.108C10.6081 21.108 9.99209 21.02 9.41609 20.844C8.84809 20.668 8.36409 20.416 7.96409 20.088L8.49209 18.96C8.90809 19.272 9.34009 19.504 9.78809 19.656C10.2441 19.8 10.7401 19.872 11.2761 19.872C11.8681 19.872 12.3241 19.768 12.6441 19.56C12.9721 19.352 13.1361 19.06 13.1361 18.684C13.1361 18.364 12.9841 18.12 12.6801 17.952C12.3841 17.776 11.8921 17.612 11.2041 17.46C10.1321 17.228 9.35209 16.928 8.86409 16.56C8.37609 16.192 8.13209 15.656 8.13209 14.952C8.13209 14.448 8.26809 14 8.54009 13.608C8.81209 13.216 9.19609 12.908 9.69209 12.684C10.1961 12.46 10.7761 12.348 11.4321 12.348C12.0321 12.348 12.6001 12.44 13.1361 12.624C13.6801 12.8 14.1241 13.048 14.4681 13.368L13.9521 14.496C13.1921 13.888 12.3521 13.584 11.4321 13.584C10.8801 13.584 10.4441 13.7 10.1241 13.932C9.80409 14.156 9.64409 14.464 9.64409 14.856C9.64409 15.192 9.78409 15.448 10.0641 15.624C10.3521 15.8 10.8401 15.964 11.5281 16.116C12.2401 16.284 12.8201 16.468 13.2681 16.668C13.7161 16.86 14.0601 17.112 14.3001 17.424C14.5401 17.728 14.6601 18.112 14.6601 18.576C14.6601 19.088 14.5241 19.536 14.2521 19.92C13.9801 20.296 13.5881 20.588 13.0761 20.796C12.5641 21.004 11.9601 21.108 11.2641 21.108ZM21.4468 16.584C21.9428 16.728 22.3228 16.98 22.5868 17.34C22.8588 17.7 22.9948 18.144 22.9948 18.672C22.9948 19.4 22.7348 19.972 22.2148 20.388C21.7028 20.796 20.9868 21 20.0668 21H16.1908V12.456H19.9468C20.8268 12.456 21.5188 12.656 22.0228 13.056C22.5268 13.448 22.7788 13.992 22.7788 14.688C22.7788 15.136 22.6588 15.528 22.4188 15.864C22.1868 16.192 21.8628 16.432 21.4468 16.584ZM17.7028 16.056H19.6948C20.7668 16.056 21.3028 15.656 21.3028 14.856C21.3028 14.456 21.1708 14.156 20.9068 13.956C20.6428 13.756 20.2388 13.656 19.6948 13.656H17.7028V16.056ZM19.8988 19.8C20.4588 19.8 20.8668 19.7 21.1228 19.5C21.3868 19.3 21.5188 18.984 21.5188 18.552C21.5188 18.112 21.3868 17.788 21.1228 17.58C20.8668 17.372 20.4588 17.268 19.8988 17.268H17.7028V19.8H19.8988Z" fill="#5541D7"/>
</svg>
