<svg width="16" height="16" viewBox="0 0 16 16" fill="none" xmlns="http://www.w3.org/2000/svg">
<path d="M10.0007 4.66634V3.33301C10.0007 2.80257 9.78994 2.29387 9.41487 1.91879C9.03979 1.54372 8.53108 1.33301 8.00065 1.33301C7.47022 1.33301 6.96151 1.54372 6.58644 1.91879C6.21136 2.29387 6.00065 2.80257 6.00065 3.33301V4.66634H3.33398V13.9997H12.6673V4.66634H10.0007ZM7.33398 3.33301C7.33398 3.1562 7.40422 2.98663 7.52925 2.8616C7.65427 2.73658 7.82384 2.66634 8.00065 2.66634C8.17746 2.66634 8.34703 2.73658 8.47206 2.8616C8.59708 2.98663 8.66732 3.1562 8.66732 3.33301V4.66634H7.33398V3.33301ZM11.334 12.6663H4.66732V5.99967H6.00065V7.33301H7.33398V5.99967H8.66732V7.33301H10.0007V5.99967H11.334V12.6663Z" fill="#9A9AB0"/>
</svg>
