<svg width="42" height="42" viewBox="0 0 42 42" fill="none" xmlns="http://www.w3.org/2000/svg">
<rect x="1" y="1" width="40" height="40" rx="20" stroke="#9A9AB0" stroke-width="2"/>
<path d="M31 14.9996H27.05C27.3299 14.6181 27.4632 14.1487 27.4255 13.677C27.3879 13.2053 27.1818 12.7629 26.845 12.4306L26.414 11.9996C26.0389 11.6247 25.5303 11.4141 25 11.4141C24.4697 11.4141 23.9611 11.6247 23.586 11.9996L21 14.5856L18.414 11.9996C18.0389 11.6247 17.5303 11.4141 17 11.4141C16.4697 11.4141 15.9611 11.6247 15.586 11.9996L15.155 12.4296C14.8181 12.7621 14.612 13.2047 14.5743 13.6765C14.5367 14.1483 14.67 14.618 14.95 14.9996H11V20.9996H12V29.9996H30V20.9996H31V14.9996ZM29 18.9996H22V16.9996H29V18.9996ZM25 13.4136L25.431 13.8446L23.7 14.9996H23.417L25 13.4136ZM16.569 13.8446L17 13.4136L18.586 14.9996H18.3L16.569 13.8446ZM13 16.9996H20V18.9996H13V16.9996ZM14 20.9996H20V27.9996H14V20.9996ZM28 27.9996H22V20.9996H28V27.9996Z" fill="#9A9AB0"/>
</svg>
