<svg width="42" height="42" viewBox="0 0 42 42" fill="none" xmlns="http://www.w3.org/2000/svg">
<rect x="1" y="1" width="40" height="40" rx="20" stroke="#9A9AB0" stroke-width="2"/>
<path d="M30 12.5566L20.819 15.9996H14C13.2044 15.9996 12.4413 16.3157 11.8787 16.8783C11.3161 17.4409 11 18.204 11 18.9996V20.9996C11 21.7953 11.3161 22.5584 11.8787 23.121C12.4413 23.6836 13.2044 23.9996 14 23.9996H16V27.9996C16 28.5301 16.2107 29.0388 16.5858 29.4139C16.9609 29.7889 17.4696 29.9996 18 29.9996H19C19.5304 29.9996 20.0391 29.7889 20.4142 29.4139C20.7893 29.0388 21 28.5301 21 27.9996V24.0676L30 27.4426V12.5566ZM15 21.9996H14C13.7348 21.9996 13.4804 21.8943 13.2929 21.7067C13.1054 21.5192 13 21.2649 13 20.9996V18.9996C13 18.7344 13.1054 18.4801 13.2929 18.2925C13.4804 18.105 13.7348 17.9996 14 17.9996H15V21.9996ZM17 17.9996H20V21.9996H17V17.9996ZM18 27.9996V23.9996H19V27.9996H18ZM28 24.5566L22 22.3066V17.6926L28 15.4426V24.5566Z" fill="#9A9AB0"/>
</svg>
