<svg width="42" height="42" viewBox="0 0 42 42" fill="none" xmlns="http://www.w3.org/2000/svg">
<rect x="1" y="1" width="40" height="40" rx="20" stroke="#5541D7" stroke-width="2"/>
<path d="M29.772 22.248L29.153 20H30V18H28.6L28.325 17V15H25V17H26.324C26.3241 17.183 26.3496 17.3651 26.4 17.541L26.722 18.708L23.667 21H22C22 20.4696 21.7893 19.9609 21.4142 19.5858C21.0391 19.2107 20.5304 19 20 19H19V13H11V21H14V22.351C13.4937 22.5902 13.0524 22.9475 12.7132 23.393C12.3741 23.8385 12.147 24.359 12.0511 24.9106C11.9553 25.4623 11.9935 26.0289 12.1625 26.5626C12.3316 27.0964 12.6265 27.5817 13.0224 27.9776C13.4183 28.3735 13.9036 28.6684 14.4374 28.8375C14.9711 29.0065 15.5377 29.0447 16.0894 28.9489C16.641 28.853 17.1615 28.6259 17.607 28.2868C18.0525 27.9476 18.4098 27.5063 18.649 27H25.349C25.5933 27.5154 25.96 27.9631 26.4172 28.3041C26.8744 28.6451 27.4082 28.8689 27.9718 28.9561C28.5355 29.0432 29.1119 28.991 29.6507 28.804C30.1895 28.617 30.6744 28.3009 31.0628 27.8833C31.4513 27.4657 31.7317 26.9594 31.8793 26.4085C32.027 25.8576 32.0375 25.2789 31.91 24.723C31.7825 24.1671 31.5208 23.6509 31.1477 23.2194C30.7747 22.788 30.3017 22.4545 29.77 22.248H29.772ZM13 19V15H17V19H13ZM15.5 27C15.2033 27 14.9133 26.912 14.6666 26.7472C14.42 26.5824 14.2277 26.3481 14.1142 26.074C14.0006 25.7999 13.9709 25.4983 14.0288 25.2074C14.0867 24.9164 14.2296 24.6491 14.4393 24.4393C14.6491 24.2296 14.9164 24.0867 15.2074 24.0288C15.4983 23.9709 15.7999 24.0006 16.074 24.1142C16.3481 24.2277 16.5824 24.42 16.7472 24.6666C16.912 24.9133 17 25.2033 17 25.5C17 25.8978 16.842 26.2794 16.5607 26.5607C16.2794 26.842 15.8978 27 15.5 27ZM25.051 25H18.951C18.8431 24.2559 18.4974 23.5666 17.9655 23.0351C17.4337 22.5037 16.7442 22.1584 16 22.051V21H20C20 21.5304 20.2107 22.0391 20.5858 22.4142C20.9609 22.7893 21.4696 23 22 23H24.333L27.293 20.78L27.661 22.113C26.9884 22.2806 26.381 22.6447 25.9162 23.1589C25.4514 23.6731 25.1502 24.314 25.051 25ZM28.5 27C28.2033 27 27.9133 26.912 27.6666 26.7472C27.42 26.5824 27.2277 26.3481 27.1142 26.074C27.0007 25.7999 26.9709 25.4983 27.0288 25.2074C27.0867 24.9164 27.2296 24.6491 27.4393 24.4393C27.6491 24.2296 27.9164 24.0867 28.2074 24.0288C28.4983 23.9709 28.7999 24.0006 29.074 24.1142C29.3481 24.2277 29.5824 24.42 29.7472 24.6666C29.912 24.9133 30 25.2033 30 25.5C30 25.8978 29.842 26.2794 29.5607 26.5607C29.2794 26.842 28.8978 27 28.5 27Z" fill="#5541D7"/>
</svg>
