<svg width="24" height="25" viewBox="0 0 24 25" fill="none" xmlns="http://www.w3.org/2000/svg">
<path fill-rule="evenodd" clip-rule="evenodd" d="M13.3429 7.04368L14.7679 8.44702L8.44974 14.8628C8.1327 15.1863 8.1327 15.7071 8.44974 16.0307C8.75058 16.3378 9.25315 16.3364 9.55079 16.029L16.5022 8.96741C17.517 7.93179 17.517 6.26857 16.5022 5.23294C15.5339 4.24484 13.8208 4.26682 12.8718 5.23482L5.28454 12.937C3.57154 14.6844 3.57154 17.4904 5.28454 19.2378C6.94795 20.9346 9.80544 20.907 11.4429 19.2362L20.2919 10.249L21.717 11.6522L12.8696 20.6378C10.4557 23.1008 6.31008 23.1409 3.85633 20.6379C1.38094 18.1127 1.38094 14.062 3.85804 11.5352L11.4453 3.83301C13.1687 2.07494 16.1701 2.03644 17.9307 3.83316C19.7075 5.64642 19.7075 8.55393 17.9291 10.3688L10.9819 17.4262C9.90719 18.5361 8.10934 18.5411 7.02113 17.4304C5.94224 16.3292 5.94224 14.5643 7.02293 13.4612L13.3429 7.04368Z" fill="#9A9AB0"/>
</svg>
